<mxfile host="Electron" modified="2023-08-02T15:01:29.678Z" agent="Mozilla/5.0 (Windows NT 10.0; Win64; x64) AppleWebKit/537.36 (KHTML, like Gecko) draw.io/21.6.5 Chrome/114.0.5735.243 Electron/25.3.1 Safari/537.36" etag="J4QCkjwqwtXgWofCrkD7" version="21.6.5" type="device">
  <diagram name="Page-1" id="ku0YH1FYylikK9vT5ajY">
    <mxGraphModel dx="864" dy="495" grid="1" gridSize="10" guides="1" tooltips="1" connect="1" arrows="1" fold="1" page="1" pageScale="1" pageWidth="1169" pageHeight="827" math="0" shadow="0">
      <root>
        <mxCell id="0" />
        <mxCell id="1" parent="0" />
        <mxCell id="ZbWDIFsLQdQXM80jOAVJ-3" value="&lt;b&gt;ProximitySensor&lt;/b&gt;" style="fontStyle=0;html=1;whiteSpace=wrap;" vertex="1" parent="1">
          <mxGeometry width="120" height="40" as="geometry" />
        </mxCell>
        <mxCell id="ZbWDIFsLQdQXM80jOAVJ-5" style="edgeStyle=orthogonalEdgeStyle;rounded=0;orthogonalLoop=1;jettySize=auto;html=1;exitX=0.5;exitY=0;exitDx=0;exitDy=0;entryX=0.5;entryY=1;entryDx=0;entryDy=0;endArrow=blockThin;endFill=0;endSize=12;" edge="1" parent="1" source="ZbWDIFsLQdQXM80jOAVJ-4" target="ZbWDIFsLQdQXM80jOAVJ-3">
          <mxGeometry relative="1" as="geometry" />
        </mxCell>
        <mxCell id="ZbWDIFsLQdQXM80jOAVJ-4" value="&lt;b&gt;ProximitySensor&lt;/b&gt;" style="fontStyle=0;html=1;whiteSpace=wrap;" vertex="1" parent="1">
          <mxGeometry y="120" width="120" height="40" as="geometry" />
        </mxCell>
        <mxCell id="ZbWDIFsLQdQXM80jOAVJ-6" value="^ ISensor" style="html=1;verticalAlign=top;labelBackgroundColor=none;startArrow=oval;startFill=0;startSize=8;endArrow=none;rounded=0;" edge="1" parent="1">
          <mxGeometry x="-1" y="-30" relative="1" as="geometry">
            <mxPoint x="200" y="140" as="sourcePoint" />
            <mxPoint x="120" y="140" as="targetPoint" />
            <mxPoint as="offset" />
          </mxGeometry>
        </mxCell>
      </root>
    </mxGraphModel>
  </diagram>
</mxfile>
